# xmcd CD database file
#
# Track frame offsets:
#	150
#	13694
#	34557
#	54295
#	59994
#	75757
#	87329
#	107013
#	128050
#	135224
#	140623
#
# Disc length: 2379 seconds
#
# Revision: 0
# Processed by: cddbd v1.5.1PL2 Copyright (c) Steve Scherf et al.
# Submitted via: CDex 1.51
#
DISCID=8509490b
DTITLE=Baïkonour - For The Lonely Hearts Of The Cosmos
DYEAR=2005
DGENRE=Jazz
TTITLE0=Lick Lokoum
TTITLE1=Coltan Anyone?
TTITLE2=Proto-Coeur
TTITLE3=Rusk Plasmique
TTITLE4=Hoku To Shin Ken
TTITLE5=60 to 0
TTITLE6=2/3/74
TTITLE7=Oben Beg (mk2)
TTITLE8=Statica
TTITLE9=Interquaalude
TTITLE10=Ultra Lazuli
EXTD=YEAR: 2005
EXTT0=
EXTT1=
EXTT2=
EXTT3=
EXTT4=
EXTT5=
EXTT6=
EXTT7=
EXTT8=
EXTT9=
EXTT10=
PLAYORDER=
